<?xml version="1.0" standalone="no"?>
<!DOCTYPE svg PUBLIC "-//W3C//DTD SVG 20010904//EN"
 "http://www.w3.org/TR/2001/REC-SVG-20010904/DTD/svg10.dtd">
<svg version="1.0" xmlns="http://www.w3.org/2000/svg"
 width="180.000000pt" height="180.000000pt" viewBox="0 0 180.000000 180.000000"
 preserveAspectRatio="xMidYMid meet">

<g transform="translate(0.000000,180.000000) scale(0.100000,-0.100000)"
fill="#000000" stroke="none">
<path d="M782 1768 c-6 -6 -12 -29 -12 -49 0 -39 -11 -49 -56 -49 -18 0 -29 9
-41 35 -29 61 -78 41 -78 -32 0 -43 -3 -48 -28 -57 -23 -9 -31 -6 -60 21 -27
27 -35 29 -55 20 -20 -9 -23 -16 -17 -41 13 -64 11 -77 -17 -93 -25 -16 -27
-15 -58 10 -26 22 -35 25 -51 16 -30 -16 -33 -35 -10 -68 26 -37 26 -53 0 -76
-20 -19 -22 -19 -91 10 -11 4 -22 -1 -34 -20 -17 -26 -16 -27 17 -61 32 -34
33 -36 18 -62 -14 -25 -19 -27 -67 -24 -49 4 -51 2 -58 -24 -5 -21 -3 -31 11
-38 50 -30 58 -41 50 -74 -6 -30 -9 -32 -50 -32 -35 0 -47 -5 -55 -21 -16 -30
-6 -47 40 -65 33 -13 40 -21 40 -44 0 -32 -13 -45 -57 -55 -18 -3 -35 -14 -38
-24 -10 -33 5 -50 51 -57 35 -5 45 -11 50 -30 9 -35 -1 -52 -41 -68 -34 -15
-44 -36 -27 -63 4 -6 30 -13 57 -15 44 -3 51 -6 60 -32 9 -26 6 -31 -23 -55
-35 -30 -40 -51 -17 -75 13 -13 20 -13 54 -1 35 12 41 12 54 -3 28 -33 28 -42
3 -73 -31 -37 -32 -50 -7 -73 18 -17 21 -16 60 6 l40 23 23 -22 c20 -21 21
-26 9 -55 -25 -63 -24 -67 3 -79 23 -11 29 -9 54 14 31 30 48 33 76 12 15 -11
17 -22 11 -64 -6 -47 -5 -52 17 -60 20 -8 27 -5 53 25 29 33 48 40 79 28 11
-4 16 -19 16 -48 0 -47 13 -66 46 -66 16 0 26 10 38 40 13 33 20 40 44 40 35
0 52 -16 52 -51 0 -32 21 -52 52 -47 17 2 24 11 28 38 8 50 17 60 51 60 24 0
32 -7 47 -37 14 -32 22 -38 47 -38 29 0 30 2 35 50 4 43 8 51 33 59 26 9 31 7
60 -26 27 -31 35 -35 55 -27 21 8 23 14 20 61 -3 47 -1 53 24 67 26 15 28 14
57 -13 31 -30 57 -31 75 -4 8 13 6 25 -7 47 -23 40 -21 58 8 77 23 15 27 15
61 -5 34 -21 38 -21 55 -5 24 22 24 46 -1 69 -24 21 -25 44 -6 70 12 17 19 18
54 9 74 -20 99 29 41 77 -28 23 -31 29 -22 55 9 26 14 29 59 32 27 2 52 9 56
15 17 26 7 47 -32 67 -62 32 -51 78 22 95 38 10 43 14 43 40 0 25 -5 31 -37
40 -47 13 -61 27 -56 56 2 17 16 30 45 43 32 14 43 25 43 41 0 30 -18 43 -65
47 -33 2 -41 8 -50 32 -8 24 -7 31 10 42 55 37 58 40 51 69 -7 27 -9 27 -56
21 -48 -6 -50 -6 -65 25 -16 31 -16 32 16 65 31 32 32 34 15 59 -19 29 -22 29
-56 10 -36 -21 -57 -18 -75 9 -15 23 -15 27 7 66 l23 41 -24 20 -24 19 -34
-26 c-31 -23 -38 -25 -58 -14 -33 17 -37 35 -20 76 13 32 13 36 -6 55 -22 22
-50 14 -72 -21 -13 -22 -38 -25 -69 -9 -17 9 -19 17 -13 54 5 37 3 45 -14 54
-31 17 -40 13 -62 -24 -16 -26 -28 -35 -48 -35 -36 0 -51 17 -51 56 0 68 -57
72 -80 6 -13 -38 -18 -42 -47 -42 -27 0 -35 5 -44 28 -20 49 -26 57 -45 60
-11 1 -25 -3 -32 -10z m234 -239 c111 -20 118 -52 41 -184 l-53 -90 -104 0
-103 0 -55 97 c-72 130 -66 156 41 178 62 12 165 12 233 -1z m-479 -181 c11
-13 42 -60 67 -105 l47 -83 -37 -62 c-21 -35 -44 -73 -51 -85 -13 -22 -20 -23
-128 -23 -119 0 -136 6 -150 49 -9 28 39 144 91 222 72 108 118 133 161 87z
m844 -28 c50 -53 124 -191 134 -252 6 -29 3 -40 -14 -57 -20 -20 -31 -21 -139
-19 l-117 3 -26 51 c-14 29 -35 64 -47 79 -24 30 -23 33 32 130 76 135 102
144 177 65z m-386 -205 c119 -48 171 -199 110 -322 -39 -78 -114 -123 -206
-123 -129 0 -228 101 -229 231 0 167 168 278 325 214z m-415 -352 c11 -26 32
-61 45 -79 14 -18 25 -35 25 -38 0 -4 -23 -47 -51 -96 -78 -137 -105 -148
-175 -72 -56 59 -135 215 -137 267 -2 57 16 65 154 65 l118 0 21 -47z m926 21
c17 -24 16 -29 -5 -95 -24 -74 -105 -205 -148 -239 -54 -42 -89 -16 -160 117
l-42 78 30 45 c17 25 38 62 46 83 l15 37 124 0 c122 0 124 0 140 -26z m-484
-270 c14 -21 41 -67 60 -101 41 -77 34 -111 -26 -131 -101 -33 -306 -22 -347
19 -28 28 -24 52 28 142 67 119 57 112 165 111 l93 -1 27 -39z"/>
</g>
</svg>
